<mxfile host="app.diagrams.net" modified="2024-04-22T10:03:09.087Z" agent="Mozilla/5.0 (Windows NT 10.0; Win64; x64) AppleWebKit/537.36 (KHTML, like Gecko) Chrome/124.0.0.0 Safari/537.36" etag="hsdXtKrF7wQ4nqDZWBx5" version="24.2.1" type="device">
  <diagram name="Page-1" id="lTJ1Ry25MObnpCO1yVr0">
    <mxGraphModel dx="1728" dy="953" grid="0" gridSize="10" guides="1" tooltips="1" connect="1" arrows="1" fold="1" page="1" pageScale="1" pageWidth="5000" pageHeight="6000" math="0" shadow="0">
      <root>
        <mxCell id="0" />
        <mxCell id="1" parent="0" />
        <mxCell id="ST5f_xct-WcNCmrXSJqp-2" value="" style="rounded=0;whiteSpace=wrap;html=1;fillColor=#dae8fc;strokeColor=#6c8ebf;" vertex="1" parent="1">
          <mxGeometry x="620" y="460" width="420" height="457" as="geometry" />
        </mxCell>
        <mxCell id="ST5f_xct-WcNCmrXSJqp-6" style="edgeStyle=orthogonalEdgeStyle;rounded=0;orthogonalLoop=1;jettySize=auto;html=1;endSize=14;strokeWidth=2;" edge="1" parent="1" source="ST5f_xct-WcNCmrXSJqp-1" target="ST5f_xct-WcNCmrXSJqp-5">
          <mxGeometry relative="1" as="geometry" />
        </mxCell>
        <mxCell id="ST5f_xct-WcNCmrXSJqp-1" value="&lt;font style=&quot;font-size: 21px;&quot;&gt;Start&lt;/font&gt;" style="ellipse;whiteSpace=wrap;html=1;" vertex="1" parent="1">
          <mxGeometry x="765" y="270" width="120" height="80" as="geometry" />
        </mxCell>
        <mxCell id="ST5f_xct-WcNCmrXSJqp-4" value="Manager Execution Handler" style="text;html=1;align=left;verticalAlign=middle;whiteSpace=wrap;rounded=0;fontSize=16;" vertex="1" parent="1">
          <mxGeometry x="609" y="430" width="260" height="30" as="geometry" />
        </mxCell>
        <mxCell id="ST5f_xct-WcNCmrXSJqp-9" style="edgeStyle=orthogonalEdgeStyle;rounded=0;orthogonalLoop=1;jettySize=auto;html=1;endSize=14;strokeWidth=2;" edge="1" parent="1" source="ST5f_xct-WcNCmrXSJqp-5" target="ST5f_xct-WcNCmrXSJqp-7">
          <mxGeometry relative="1" as="geometry" />
        </mxCell>
        <mxCell id="ST5f_xct-WcNCmrXSJqp-5" value="&lt;font style=&quot;font-size: 21px;&quot;&gt;InputManager Event Calls&lt;/font&gt;" style="rounded=1;whiteSpace=wrap;html=1;align=center;" vertex="1" parent="1">
          <mxGeometry x="660" y="500" width="330" height="40" as="geometry" />
        </mxCell>
        <mxCell id="ST5f_xct-WcNCmrXSJqp-10" style="edgeStyle=orthogonalEdgeStyle;rounded=0;orthogonalLoop=1;jettySize=auto;html=1;entryX=0.5;entryY=0;entryDx=0;entryDy=0;endSize=14;strokeWidth=2;" edge="1" parent="1" source="ST5f_xct-WcNCmrXSJqp-7" target="ST5f_xct-WcNCmrXSJqp-8">
          <mxGeometry relative="1" as="geometry" />
        </mxCell>
        <mxCell id="ST5f_xct-WcNCmrXSJqp-7" value="&lt;font style=&quot;font-size: 21px;&quot;&gt;UIManager.OnUpdate()&lt;/font&gt;" style="rounded=1;whiteSpace=wrap;html=1;align=center;" vertex="1" parent="1">
          <mxGeometry x="660" y="580" width="330" height="40" as="geometry" />
        </mxCell>
        <mxCell id="ST5f_xct-WcNCmrXSJqp-20" style="edgeStyle=orthogonalEdgeStyle;rounded=0;orthogonalLoop=1;jettySize=auto;html=1;entryX=0.5;entryY=0;entryDx=0;entryDy=0;endSize=14;strokeWidth=2;" edge="1" parent="1" source="ST5f_xct-WcNCmrXSJqp-8" target="ST5f_xct-WcNCmrXSJqp-19">
          <mxGeometry relative="1" as="geometry" />
        </mxCell>
        <mxCell id="ST5f_xct-WcNCmrXSJqp-8" value="&lt;font style=&quot;font-size: 21px;&quot;&gt;MiniatureManger.OnUpdate()&lt;/font&gt;" style="rounded=1;whiteSpace=wrap;html=1;align=center;" vertex="1" parent="1">
          <mxGeometry x="660" y="660" width="330" height="40" as="geometry" />
        </mxCell>
        <mxCell id="ST5f_xct-WcNCmrXSJqp-11" value="" style="rounded=0;whiteSpace=wrap;html=1;fillColor=#d5e8d4;strokeColor=#82b366;" vertex="1" parent="1">
          <mxGeometry x="1166" y="460" width="420" height="458" as="geometry" />
        </mxCell>
        <mxCell id="ST5f_xct-WcNCmrXSJqp-12" value="Input Manager" style="text;html=1;align=left;verticalAlign=middle;whiteSpace=wrap;rounded=0;fontSize=16;" vertex="1" parent="1">
          <mxGeometry x="1152" y="430" width="260" height="30" as="geometry" />
        </mxCell>
        <mxCell id="ST5f_xct-WcNCmrXSJqp-13" value="&lt;font style=&quot;font-size: 21px;&quot;&gt;UIManager Action Queue&lt;/font&gt;" style="rounded=1;whiteSpace=wrap;html=1;align=center;" vertex="1" parent="1">
          <mxGeometry x="1211" y="526" width="330" height="40" as="geometry" />
        </mxCell>
        <mxCell id="ST5f_xct-WcNCmrXSJqp-14" value="&lt;font style=&quot;font-size: 21px;&quot;&gt;MiniatureManager Action Queue&lt;/font&gt;" style="rounded=1;whiteSpace=wrap;html=1;align=center;" vertex="1" parent="1">
          <mxGeometry x="1211" y="625" width="330" height="40" as="geometry" />
        </mxCell>
        <mxCell id="ST5f_xct-WcNCmrXSJqp-16" style="edgeStyle=orthogonalEdgeStyle;rounded=0;orthogonalLoop=1;jettySize=auto;html=1;entryX=0;entryY=0.5;entryDx=0;entryDy=0;endSize=14;strokeWidth=2;" edge="1" parent="1" source="ST5f_xct-WcNCmrXSJqp-15" target="ST5f_xct-WcNCmrXSJqp-13">
          <mxGeometry relative="1" as="geometry" />
        </mxCell>
        <mxCell id="ST5f_xct-WcNCmrXSJqp-17" style="edgeStyle=orthogonalEdgeStyle;rounded=0;orthogonalLoop=1;jettySize=auto;html=1;entryX=0;entryY=0.5;entryDx=0;entryDy=0;endSize=14;strokeWidth=2;" edge="1" parent="1" source="ST5f_xct-WcNCmrXSJqp-15" target="ST5f_xct-WcNCmrXSJqp-14">
          <mxGeometry relative="1" as="geometry" />
        </mxCell>
        <mxCell id="ST5f_xct-WcNCmrXSJqp-15" value="" style="shape=curlyBracket;whiteSpace=wrap;html=1;rounded=1;flipH=1;labelPosition=right;verticalLabelPosition=middle;align=left;verticalAlign=middle;strokeWidth=2;" vertex="1" parent="1">
          <mxGeometry x="1061" y="463" width="20" height="285" as="geometry" />
        </mxCell>
        <mxCell id="ST5f_xct-WcNCmrXSJqp-18" value="Populate" style="text;html=1;align=center;verticalAlign=middle;whiteSpace=wrap;rounded=0;" vertex="1" parent="1">
          <mxGeometry x="1075" y="615" width="60" height="30" as="geometry" />
        </mxCell>
        <mxCell id="ST5f_xct-WcNCmrXSJqp-23" style="edgeStyle=orthogonalEdgeStyle;rounded=0;orthogonalLoop=1;jettySize=auto;html=1;entryX=0;entryY=0.5;entryDx=0;entryDy=0;endSize=14;strokeWidth=2;" edge="1" parent="1" source="ST5f_xct-WcNCmrXSJqp-19" target="ST5f_xct-WcNCmrXSJqp-21">
          <mxGeometry relative="1" as="geometry" />
        </mxCell>
        <mxCell id="ST5f_xct-WcNCmrXSJqp-19" value="&lt;span style=&quot;font-size: 21px;&quot;&gt;InputManager.OnUpdate()&lt;/span&gt;" style="rounded=1;whiteSpace=wrap;html=1;align=center;" vertex="1" parent="1">
          <mxGeometry x="660" y="820" width="330" height="40" as="geometry" />
        </mxCell>
        <mxCell id="ST5f_xct-WcNCmrXSJqp-24" style="edgeStyle=orthogonalEdgeStyle;rounded=0;orthogonalLoop=1;jettySize=auto;html=1;entryX=0.5;entryY=0;entryDx=0;entryDy=0;strokeWidth=2;endSize=14;" edge="1" parent="1" source="ST5f_xct-WcNCmrXSJqp-21" target="ST5f_xct-WcNCmrXSJqp-22">
          <mxGeometry relative="1" as="geometry" />
        </mxCell>
        <mxCell id="ST5f_xct-WcNCmrXSJqp-21" value="&lt;font style=&quot;font-size: 21px;&quot;&gt;Execute UIManager Queue&lt;/font&gt;" style="rounded=1;whiteSpace=wrap;html=1;align=center;" vertex="1" parent="1">
          <mxGeometry x="1211" y="764" width="330" height="40" as="geometry" />
        </mxCell>
        <mxCell id="ST5f_xct-WcNCmrXSJqp-26" style="edgeStyle=orthogonalEdgeStyle;rounded=0;orthogonalLoop=1;jettySize=auto;html=1;endSize=14;strokeWidth=2;" edge="1" parent="1" source="ST5f_xct-WcNCmrXSJqp-22" target="ST5f_xct-WcNCmrXSJqp-25">
          <mxGeometry relative="1" as="geometry" />
        </mxCell>
        <mxCell id="ST5f_xct-WcNCmrXSJqp-22" value="&lt;font style=&quot;font-size: 21px;&quot;&gt;Execute MiniatureManager Queue&lt;/font&gt;" style="rounded=1;whiteSpace=wrap;html=1;align=center;" vertex="1" parent="1">
          <mxGeometry x="1204" y="845" width="344" height="40" as="geometry" />
        </mxCell>
        <mxCell id="ST5f_xct-WcNCmrXSJqp-25" value="&lt;font style=&quot;font-size: 21px;&quot;&gt;End&lt;/font&gt;" style="ellipse;whiteSpace=wrap;html=1;" vertex="1" parent="1">
          <mxGeometry x="1316" y="1009" width="120" height="80" as="geometry" />
        </mxCell>
      </root>
    </mxGraphModel>
  </diagram>
</mxfile>
